<svg xmlns="http://www.w3.org/2000/svg" xmlns:xlink="http://www.w3.org/1999/xlink" viewBox="0 0 1049 1113.79999"><defs><style>.cls-1{fill:#00ae76;}.cls-2{fill:#19fbb2;}.cls-3{opacity:0.2;}.cls-4{opacity:0.95;}.cls-5{fill:url(#linear-gradient);}</style><linearGradient id="linear-gradient" x1="-309.03608" y1="1208.96259" x2="-309.03608" y2="1188.47589" gradientTransform="matrix(39.62007, 0, 0, -35.50329, 12783.24237, 43090.94402)" gradientUnits="userSpaceOnUse"><stop offset="0" stop-color="#f88a36"/><stop offset="1" stop-color="#fd2020"/></linearGradient></defs><title>Artboard 1</title><g id="Layer_1" data-name="Layer 1"><polygon class="cls-1" points="905.228 226.758 841.33 287.106 759.682 287.106 905.228 145.11 1049 292.431 967.352 292.431 905.228 226.758"/><polyline class="cls-2" points="905.228 145.11 1049 292.431 967.352 292.431 905.228 226.758 841.33 287.106"/><polygon class="cls-1" points="905.228 406.029 841.33 469.927 759.682 469.927 905.228 326.156 1049 469.927 967.352 469.927 905.228 406.029"/><polyline class="cls-2" points="905.228 326.156 1049 469.927 967.352 469.927 905.228 406.029 841.33 469.927"/><path class="cls-2" d="M777.43148,558.675c-3.54993,141.99665-113.59732,250.269-252.044,250.269-140.22166,0-253.819-111.82232-253.819-252.044,0-134.8968,111.82234-243.16921,236.06938-250.269V35.06244C223.64468,42.16228,0,274.68173,0,558.675,0,847.993,236.06938,1078.73754,525.3875,1078.73754c285.7682,0,520.06264-236.06937,523.6125-520.06261H777.43148Z"/><path class="cls-1" d="M1.775,558.675c0,289.31807,234.29443,520.06257,523.61254,520.06257,287.5432,0,520.06264-236.06937,523.6125-520.06261H777.43148C773.88155,700.67156,663.83416,808.944,525.38747,808.944c-140.22166,0-253.819-111.82232-253.819-252.044"/></g><g id="Layer_2_copy" data-name="Layer 2 copy"><path class="cls-3" d="M716.19064,894.68456C620.57923,949.91668,489.1161,955.5915,356.854,898.90485,249.76384,853.34245,160.90689,773.58771,103.94567,682.46292c27.34155,22.7812,59.23933,41.01438,93.41524,56.953,136.58891,64.02093,273.14914,59.63676,369.25223.16388a1.02656,1.02656,0,0,1-.14341-.16388C429.762,634.606,313.56146,497.89829,226.9847,386.26625c-18.23521-18.22906-31.906-41.01436-45.57675-61.51951C286.21584,420.44012,452.54938,541.18869,511.77643,575.381,386.47979,443.22132,274.8273,279.18433,279.37535,283.73238,477.60464,484.23568,662.16927,598.1622,662.16927,598.1622c6.105,3.44175,10.817,6.30991,14.607,8.87075A299.79123,299.79123,0,0,0,687.22449,575.381c31.89777-116.20054-4.548-248.36023-84.30275-357.71823,184.54419,111.64226,293.92268,321.25189,248.33974,496.7q-1.7823,7.09867-3.872,13.99243.799.95264,1.59794,1.96674C940.11232,844.24846,915.057,964.997,903.66642,942.2158c-49.43436-96.73819-140.9485-67.15539-187.47378-47.52913Z"/><g class="cls-4"><path class="cls-5" d="M745.615,845.81381c-95.61141,55.23212-227.07454,60.90694-359.33668,4.22029C279.18816,804.4717,190.33121,724.717,133.37,633.59217c27.34155,22.7812,59.23933,41.01438,93.41524,56.953,136.58891,64.02093,273.14914,59.63676,369.25223.16388a1.02656,1.02656,0,0,1-.14341-.16388C459.18632,585.73528,342.98578,449.02754,256.409,337.3955c-18.23521-18.22906-31.906-41.01436-45.57675-61.5195C315.64016,371.56937,481.9737,492.31794,541.20075,526.51025,415.90411,394.35057,304.25161,230.31358,308.79966,234.86163,507.029,435.36493,691.59359,549.29145,691.59359,549.29145c6.105,3.44175,10.817,6.30991,14.607,8.87075a299.79122,299.79122,0,0,0,10.44822-31.65195c31.89777-116.20054-4.548-248.36023-84.30275-357.71823,184.54419,111.64226,293.92268,321.25189,248.33974,496.7q-1.7823,7.09867-3.872,13.99243.799.95264,1.59794,1.96674c91.12487,113.92654,66.06957,234.67507,54.679,211.89388-49.43436-96.73819-140.9485-67.15539-187.47378-47.52913Z"/></g></g></svg>