<svg xmlns="http://www.w3.org/2000/svg" xmlns:xlink="http://www.w3.org/1999/xlink" viewBox="0 0 250 250"><defs><style>.cls-1{fill:#00ae76;}.cls-2{fill:#19fbb2;}.cls-3{opacity:0.2;}.cls-4{opacity:0.95;}.cls-5{fill:url(#linear-gradient);}</style><linearGradient id="linear-gradient" x1="-473.64325" y1="1015.55341" x2="-473.64325" y2="1010.65903" gradientTransform="matrix(39.62007, 0, 0, -35.50329, 18894.28382, 36087.43817)" gradientUnits="userSpaceOnUse"><stop offset="0" stop-color="#f88a36"/><stop offset="1" stop-color="#fd2020"/></linearGradient></defs><title>Logo</title><g id="Layer_1" data-name="Layer 1"><polygon class="cls-1" points="215.736 45.797 200.508 60.215 181.049 60.215 215.736 26.291 250 61.487 230.541 61.487 215.736 45.797"/><polyline class="cls-2" points="215.736 26.291 250 61.487 230.541 61.487 215.736 45.797 200.508 60.215"/><polygon class="cls-1" points="215.736 88.626 200.508 103.892 181.049 103.892 215.736 69.544 250 103.892 230.541 103.892 215.736 88.626"/><polyline class="cls-2" points="215.736 69.544 250 103.892 230.541 103.892 215.736 88.626 200.508 103.892"/><path class="cls-2" d="M185.27919,125.09389c-.846,33.92378-27.07277,59.79064-60.06769,59.79064a60.19114,60.19114,0,0,1-60.4907-60.21469c0-32.22758,26.64975-58.09445,56.26058-59.79064V0C53.2995,1.69619,0,57.24636,0,125.09389c0,69.11966,56.26058,124.24579,125.21151,124.24579,68.10491,0,123.94248-56.39826,124.78849-124.24579H185.27919Z"/><path class="cls-1" d="M.423,125.09389c0,69.11966,55.83757,124.24579,124.7885,124.24579,68.52793,0,123.94248-56.39826,124.78849-124.24579H185.27919c-.846,33.92377-27.07277,59.79065-60.06769,59.79065a60.19114,60.19114,0,0,1-60.4907-60.21469"/></g><g id="Layer_2_copy" data-name="Layer 2 copy"><path class="cls-3" d="M170.68414,205.36841c-22.78632,13.19525-54.11691,14.551-85.63791,1.00825a134.02391,134.02391,0,0,1-60.27366-51.70916A101.51128,101.51128,0,0,0,47.03549,168.2739c32.55217,15.29495,65.09751,14.24755,88.001.03915a.24507.24507,0,0,1-.03418-.03915C102.42183,143.23423,74.72866,110.574,54.0955,83.90451c-4.34586-4.355-7.6039-9.79856-10.862-14.69735,24.978,22.86167,64.619,51.70916,78.73415,59.87789-29.861-31.57367-56.47024-70.763-55.38634-69.67645,47.24244,47.90133,91.22829,75.119,91.22829,75.119,1.455.82225,2.57793,1.50747,3.48117,2.11927a71.74517,71.74517,0,0,0,2.49-7.56182c7.60195-27.76094-1.0839-59.33461-20.09122-85.46084,43.981,26.67194,70.0483,76.74883,59.18488,118.66434q-.42476,1.69591-.92278,3.34287.19042.22759.38083.46986c21.71708,27.21767,15.74585,56.06516,13.03121,50.6226-11.78131-23.11128-33.59116-16.04379-44.67917-11.355Z"/><g class="cls-4"><path class="cls-5" d="M177.69661,193.69293c-22.78632,13.19525-54.11691,14.551-85.63791,1.00825A134.02391,134.02391,0,0,1,31.785,142.992,101.51129,101.51129,0,0,0,54.048,156.59841c32.55217,15.29495,65.09751,14.24755,88.001.03915a.24507.24507,0,0,1-.03418-.03915C109.4343,131.55874,81.74113,98.89852,61.108,72.229c-4.34586-4.355-7.6039-9.79856-10.862-14.69735,24.978,22.86167,64.619,51.70916,78.73415,59.87789-29.861-31.57367-56.47024-70.763-55.38634-69.67645,47.24244,47.90133,91.22829,75.119,91.22829,75.119,1.455.82225,2.57792,1.50747,3.48117,2.11927a71.74516,71.74516,0,0,0,2.49-7.56182c7.60195-27.76094-1.0839-59.33461-20.09122-85.46084,43.981,26.67194,70.0483,76.74883,59.18488,118.66434q-.42476,1.69591-.92278,3.34287.19042.22759.38083.46986c21.71708,27.21767,15.74585,56.06516,13.03121,50.6226-11.78131-23.11128-33.59116-16.04379-44.67917-11.355Z"/></g></g></svg>