<svg xmlns="http://www.w3.org/2000/svg" xmlns:xlink="http://www.w3.org/1999/xlink" viewBox="0 0 566.46974 563.59425"><defs><style>.cls-1{fill:#00ae76;}.cls-2{fill:#19fbb2;}.cls-3{opacity:0.2;}.cls-4{opacity:0.95;}.cls-5{fill:url(#linear-gradient);}</style><linearGradient id="linear-gradient" x1="-315.29648" y1="1175.63279" x2="-315.29648" y2="1164.56978" gradientTransform="matrix(39.62007, 0, 0, -35.50329, 12783.24237, 41811.04938)" gradientUnits="userSpaceOnUse"><stop offset="0" stop-color="#f88a36"/><stop offset="1" stop-color="#fd2020"/></linearGradient></defs><title>Logo</title><g id="Layer_1" data-name="Layer 1"><polygon class="cls-1" points="488.827 103.517 454.321 136.106 410.23 136.106 488.827 59.427 566.465 138.982 522.374 138.982 488.827 103.517"/><polyline class="cls-2" points="488.827 59.427 566.465 138.982 522.374 138.982 488.827 103.517 454.321 136.106"/><polygon class="cls-1" points="488.827 200.325 454.321 234.831 410.23 234.831 488.827 157.193 566.465 234.831 522.374 234.831 488.827 200.325"/><polyline class="cls-2" points="488.827 157.193 566.465 234.831 522.374 234.831 488.827 200.325 454.321 234.831"/><path class="cls-2" d="M419.81535,282.75563c-1.917,76.67951-61.34361,135.14761-136.10611,135.14761-75.721,0-137.0646-60.38509-137.0646-136.10611,0-72.84552,60.3851-131.31363,127.47966-135.14761V0C120.76533,3.834-.00487,129.39664-.00487,282.75563c0,156.23444,127.47966,280.83862,283.71413,280.83862,154.31748,0,280.83866-127.47965,282.75561-280.83864H419.81535Z"/><path class="cls-1" d="M.95362,282.75563c0,156.23444,126.52117,280.83862,282.75564,280.83862,155.276,0,280.83866-127.47965,282.75561-280.83864H419.81535c-1.917,76.67949-61.34361,135.14763-136.10611,135.14763-75.721,0-137.0646-60.38509-137.0646-136.10611"/></g><g id="Layer_2_copy" data-name="Layer 2 copy"><path class="cls-3" d="M386.74473,464.20393c-51.63105,29.82586-122.62236,32.89031-194.04515,2.279C134.86992,441.87881,86.88634,398.8105,56.12676,349.60227c14.76469,12.30206,31.98979,22.14815,50.4451,30.75517,73.75928,34.5719,147.50307,32.2044,199.39963.0885a.55435.55435,0,0,1-.07744-.0885C232.0706,323.7591,169.32123,249.93566,122.569,189.65332c-9.84718-9.84386-17.22952-22.14814-24.61187-33.2211C154.55434,208.10752,244.376,273.31288,276.35916,291.777c-67.66135-71.36746-127.95474-159.949-125.49875-157.493,107.04566,108.27364,206.71227,169.795,206.71227,169.795,3.29678,1.85858,5.84127,3.40741,7.88792,4.79029a161.89005,161.89005,0,0,0,5.64214-17.09235c17.22509-62.74937-2.456-134.11683-45.52427-193.17116,99.65558,60.28786,158.721,173.479,134.10576,268.22261q-.96246,3.83335-2.0909,7.556.43147.51443.8629,1.06206c49.20827,61.52139,35.67818,126.72672,29.52715,114.42466-26.695-52.23952-76.1135-36.26453-101.23759-25.66617Z"/><g class="cls-4"><path class="cls-5" d="M402.63413,437.81327c-51.63105,29.82586-122.62236,32.89031-194.04515,2.279-57.82966-24.60412-105.81323-67.67242-136.57282-116.88065,14.76469,12.30206,31.98979,22.14815,50.4451,30.75517,73.75928,34.5719,147.50307,32.2044,199.39963.0885a.55435.55435,0,0,1-.07744-.0885C247.96,297.36844,185.21064,223.545,138.45838,163.26266c-9.84718-9.84386-17.22952-22.14814-24.61187-33.2211,56.59724,51.67531,146.41889,116.88066,178.40205,135.34483-67.66135-71.36746-127.95474-159.949-125.49875-157.493,107.04566,108.27364,206.71227,169.795,206.71227,169.795,3.29678,1.85858,5.84127,3.40741,7.88792,4.79029a161.89,161.89,0,0,0,5.64214-17.09235c17.22509-62.74937-2.456-134.11683-45.52427-193.17116,99.65558,60.28786,158.721,173.479,134.10576,268.22261q-.96246,3.83335-2.0909,7.556.43147.51443.8629,1.06206c49.20827,61.52139,35.67818,126.72672,29.52715,114.42466-26.695-52.23952-76.1135-36.26453-101.23759-25.66617Z"/></g></g></svg>